# xmcd
#
# Track frame offsets:
#	150
#	15050
#	30889
#	45006
#	58719
#	76934
#	90313
#	105147
#	121551
#	134322
#	146077
#	154781
#	169347
#	180964
#	196578
#	219011
#	238720
#	254878
#	270909
#	287790
#	304652
#	321790
#	338140
#
# Disc length: 4689 seconds
#
# Revision: 1
# Processed by: cddbd v1.5.1PL2 Copyright (c) Steve Scherf et al.
# Submitted via: audiograbber 1.83.01
#
DISCID=14124f17
DTITLE=DJ Envy - Down and Dirty R&B Part 7
DYEAR=2006
DGENRE=R&B
TTITLE0=Chris Brown feat. Lil Wayne - Gimme That (Remix)
TTITLE1=Christina Milian feat. Young Jeezy - Say I
TTITLE2=Kieran feat. Fabolous - Let's Get Away
TTITLE3=Mary J. Blige feat. Beanie Sigel - Can't Hide from Love (Remix)
TTITLE4=Christina Milian feat. Lil Wayne and Three 6 Mafia - Who's Gonna Ride
TTITLE5=Yummi feat. Lil Wayne and Red Cafe - Is it Good to You (Remix)
TTITLE6=Missez feat. Pimp C - Love Song
TTITLE7=Daron Jones (of 112) feat. Lil Wayne - My Kinda Girl
TTITLE8=Jagged Edge - So High
TTITLE9=Chris Brown - Who's Girl Is That
TTITLE10=Nivea - I Think They Like Me
TTITLE11=Nina Shaw feat. Fabolous - My Way
TTITLE12=J Dia feat. Styles P - I Won't Tell
TTITLE13=Ne-Yo feat. Ghostface - Get Down Like That (Remix)
TTITLE14=Jamie Foxx feat. Chamillionaire - Can I Take You Home (Remix)
TTITLE15=Jaheim feat. Styles P - Fiend
TTITLE16=Daron Jones (of 112) feat. D4L - Dance for Me
TTITLE17=Ne-Yo feat. LL Cool J - So Sick (Remix)
TTITLE18=Robin Thicke feat. Busta and Pharell - I Wanna Love You Girl (Remix)
TTITLE19=Jamie Foxx feat. Snoop and Game - With You
TTITLE20=Kelis feat. Too Short - Bossy
TTITLE21=DJ Clue feat. Mariah Carey, Fabolous and Styles P - Don't Forget About U
TTITLE21=s (Remix)
TTITLE22=Sleepy Brown feat. Big Boi and Killer Mike - Runnin Away
EXTD=
EXTT0=
EXTT1=
EXTT2=
EXTT3=
EXTT4=
EXTT5=
EXTT6=
EXTT7=
EXTT8=
EXTT9=
EXTT10=
EXTT11=
EXTT12=
EXTT13=
EXTT14=
EXTT15=
EXTT16=
EXTT17=
EXTT18=
EXTT19=
EXTT20=
EXTT21=
EXTT22=
PLAYORDER=
